<svg xmlns="http://www.w3.org/2000/svg" xmlns:xlink="http://www.w3.org/1999/xlink" viewBox="0 0 1033 1000"><defs><style>.cls-1{fill:#3c5a9a;stroke-miterlimit:10;stroke-width:10px;stroke:url(#Degradado_sin_nombre_15);}.cls-2{fill:#fff;}</style><linearGradient id="Degradado_sin_nombre_15" x1="397.09" y1="1061.76" x2="636.7" y2="-65.18" gradientUnits="userSpaceOnUse"><stop offset="0" stop-color="#381e39" stop-opacity="0.4"/><stop offset="0.34" stop-color="#39203a" stop-opacity="0.41"/><stop offset="0.46" stop-color="#3f2640" stop-opacity="0.42"/><stop offset="0.55" stop-color="#483149" stop-opacity="0.46"/><stop offset="0.62" stop-color="#564057" stop-opacity="0.5"/><stop offset="0.68" stop-color="#675568" stop-opacity="0.56"/><stop offset="0.74" stop-color="#7d6d7e" stop-opacity="0.64"/><stop offset="0.79" stop-color="#978b97" stop-opacity="0.73"/><stop offset="0.83" stop-color="#b5aeb5" stop-opacity="0.83"/><stop offset="0.87" stop-color="#d6d4d6" stop-opacity="0.94"/><stop offset="0.89" stop-color="#e6e6e6"/></linearGradient></defs><g id="Layer_2" data-name="Layer 2"><g id="Capa_1" data-name="Capa 1"><path class="cls-1" d="M960.61,995H128.39C47.71,995,5,952.29,5,899.61V100.39A95.39,95.39,0,0,1,100.39,5H932.61A95.39,95.39,0,0,1,1028,100.39V899.61C1028,952.29,985.29,995,960.61,995Z"/><path class="cls-2" d="M717,243.61V125.55S449,48,428.37,235.27h-.26v8.34h0V387.77a6.29,6.29,0,0,1-6.29,6.29H316V531.77H421.82a6.3,6.3,0,0,1,6.29,6.3V993H585.43V541.61a9.85,9.85,0,0,1,9.84-9.84H695.69l16.68-137.71H595.27a9.84,9.84,0,0,1-9.84-9.84V295.29a51.68,51.68,0,0,1,51.68-51.68Z"/></g></g></svg>